<?xml version="1.0" encoding="UTF-8" standalone="no"?>
<svg
   width="38"
   height="72"
   fill="#fff"
   version="1.1"
   id="svg8"
   sodipodi:docname="logo.svg"
   inkscape:version="1.2.1 (9c6d41e410, 2022-07-14, custom)"
   xmlns:inkscape="http://www.inkscape.org/namespaces/inkscape"
   xmlns:sodipodi="http://sodipodi.sourceforge.net/DTD/sodipodi-0.dtd"
   xmlns="http://www.w3.org/2000/svg"
   xmlns:svg="http://www.w3.org/2000/svg">
  <defs
     id="defs12" />
  <sodipodi:namedview
     id="namedview10"
     pagecolor="#ffffff"
     bordercolor="#999999"
     borderopacity="1"
     inkscape:showpageshadow="0"
     inkscape:pageopacity="0"
     inkscape:pagecheckerboard="0"
     inkscape:deskcolor="#d1d1d1"
     showgrid="false"
     inkscape:zoom="12.458333"
     inkscape:cx="19.063545"
     inkscape:cy="36.040134"
     inkscape:window-width="1532"
     inkscape:window-height="1031"
     inkscape:window-x="384"
     inkscape:window-y="47"
     inkscape:window-maximized="1"
     inkscape:current-layer="svg8" />
  <path
     d="M28.05 3.51l9.44 15.45a.18.18 0 0 1 0 .21.17.17 0 0 1-.25 0L25.01 6.42l3.04-2.91z"
     id="path2"
     style="fill:#c72c48;fill-opacity:1" />
  <path
     d="M7.2 45.1a42 42 0 0 1 8.32-11.8 42.6 42.6 0 0 1 4.16-3.65v9L7.2 45.1zM0 53.44l19.68-10v22.9l4.43 5.76v-31l2.69-1.39a13.35 13.35 0 0 0 3.67-21.12L20.34 8a2.25 2.25 0 0 1 .11-3.17 2.26 2.26 0 0 1 3.18.11l1.42 1.48 3-2.92c-3.59-4.66-8-4.07-10.53-1.74a6.46 6.46 0 0 0-.28 9.12l10.24 10.67a9.14 9.14 0 0 1-2 14.08l-1.39.72V21.88A46.33 46.33 0 0 0 0 53.39v.05z"
     id="path4"
     style="fill:#c72c48;fill-opacity:1" />
  <path
     d="M24.11 41.09v4.68l-4.43 2.25v-4.65z"
     id="path6"
     style="fill:#c72c48;fill-opacity:1" />
</svg>
