<?xml version="1.0" encoding="UTF-8" standalone="no"?>
<svg
   version="1.1"
   id="Ebene_1"
   x="0px"
   y="0px"
   viewBox="0 0 800 200"
   xml:space="preserve"
   width="800"
   height="200"
   sodipodi:docname="project.svg"
   inkscape:version="1.2.1 (9c6d41e410, 2022-07-14, custom)"
   inkscape:export-filename="project.png"
   inkscape:export-xdpi="96"
   inkscape:export-ydpi="96"
   xmlns:inkscape="http://www.inkscape.org/namespaces/inkscape"
   xmlns:sodipodi="http://sodipodi.sourceforge.net/DTD/sodipodi-0.dtd"
   xmlns="http://www.w3.org/2000/svg"
   xmlns:svg="http://www.w3.org/2000/svg"
   xmlns:rdf="http://www.w3.org/1999/02/22-rdf-syntax-ns#"
   xmlns:cc="http://creativecommons.org/ns#"
   xmlns:dc="http://purl.org/dc/elements/1.1/"><sodipodi:namedview
   pagecolor="#ffffff"
   bordercolor="#666666"
   borderopacity="1"
   objecttolerance="10"
   gridtolerance="10"
   guidetolerance="10"
   inkscape:pageopacity="0"
   inkscape:pageshadow="2"
   inkscape:window-width="1724"
   inkscape:window-height="1031"
   id="namedview13"
   showgrid="false"
   inkscape:zoom="1.410678"
   inkscape:cx="359.75609"
   inkscape:cy="91.44539"
   inkscape:window-x="192"
   inkscape:window-y="47"
   inkscape:window-maximized="0"
   inkscape:current-layer="Ebene_1"
   inkscape:showpageshadow="0"
   inkscape:pagecheckerboard="0"
   inkscape:deskcolor="#d1d1d1" /><metadata
   id="metadata33"><rdf:RDF><cc:Work
       rdf:about=""><dc:format>image/svg+xml</dc:format><dc:type
         rdf:resource="http://purl.org/dc/dcmitype/StillImage" /></cc:Work></rdf:RDF></metadata><defs
   id="defs31">

</defs>
<style
   type="text/css"
   id="style2">
    .st0{fill-rule:evenodd;clip-rule:evenodd;fill:#E73E11;}
    .st1{fill-rule:evenodd;clip-rule:evenodd;fill:#0371B9;}
    .st2{fill:#132E48;}
    .st3{font-family:'OpenSans-Bold';}
    .st4{font-size:29.5168px;}
    .st5{fill-rule:evenodd;clip-rule:evenodd;fill:none;}
    .st6{opacity:0.5;fill:#132E48;}
    .st7{font-family:'OpenSans';}
    .st8{font-size:12px;}
</style>
<text
   class="st2 st3 st4"
   id="text10"
   style="font-style:normal;font-variant:normal;font-weight:bold;font-stretch:normal;font-size:29.5173px;font-family:'Open Sans', sans-serif;-inkscape-font-specification:'OpenSans-Bold, Bold';font-variant-ligatures:normal;font-variant-caps:normal;font-variant-numeric:normal;font-feature-settings:normal;text-align:start;writing-mode:lr-tb;text-anchor:start;fill:#132e48"
   x="192.43155"
   y="107.939">hausgold/minio</text>
<rect
   x="194.23985"
   y="119.60001"
   class="st5"
   width="314.5"
   height="24"
   id="rect12"
   style="clip-rule:evenodd;fill:none;fill-rule:evenodd" /><text
   class="st6 st7 st8"
   id="text14"
   style="font-style:normal;font-variant:normal;font-weight:normal;font-stretch:normal;font-size:12px;font-family:'Open Sans', sans-serif;-inkscape-font-specification:'Open Sans, sans-serif, Normal';font-variant-ligatures:normal;font-variant-caps:normal;font-variant-numeric:normal;font-feature-settings:normal;text-align:start;writing-mode:lr-tb;text-anchor:start;opacity:0.5;fill:#132e48"
   x="194.21715"
   y="128.75729">mDNS enabled minio/minio</text>

<g
   id="g407"
   transform="matrix(1.772723,0,0,1.772723,-102.59363,187.96523)"
   style="stroke-width:0.564104"><path
     d="m 125.54426,-82.15691 9.44,15.45 a 0.18,0.18 0 0 1 0,0.21 0.17,0.17 0 0 1 -0.25,0 l -12.23,-12.75 z"
     id="path2"
     style="fill:#c72c48;fill-opacity:1;stroke-width:0.564104" /><path
     d="m 104.69426,-40.56691 a 42,42 0 0 1 8.32,-11.8 42.6,42.6 0 0 1 4.16,-3.65 v 9 z m -7.200004,8.34 19.680004,-10 v 22.9 l 4.43,5.76 v -31 l 2.69,-1.39 a 13.35,13.35 0 0 0 3.67,-21.12 l -10.13,-10.59 a 2.25,2.25 0 0 1 0.11,-3.17 2.26,2.26 0 0 1 3.18,0.11 l 1.42,1.48 3,-2.92 c -3.59,-4.66 -8,-4.07 -10.53,-1.74 a 6.46,6.46 0 0 0 -0.28,9.12 l 10.24,10.67 a 9.14,9.14 0 0 1 -2,14.08 l -1.39,0.72 v -14.47 a 46.33,46.33 0 0 0 -24.090004,31.51 z"
     id="path4"
     style="fill:#c72c48;fill-opacity:1;stroke-width:0.564104" /><path
     d="m 121.60426,-44.57691 v 4.68 l -4.43,2.25 v -4.65 z"
     id="path6"
     style="fill:#c72c48;fill-opacity:1;stroke-width:0.564104" /></g></svg>
