<?xml version="1.0" encoding="UTF-8" standalone="no"?>
<svg
   id="hg-readme-banner-v2"
   viewBox="0 0 800 200"
   width="800"
   height="200"
   version="1.1"
   sodipodi:docname="project.svg"
   xml:space="preserve"
   inkscape:version="1.4.1 (93de688d07, 2025-03-30)"
   xmlns:inkscape="http://www.inkscape.org/namespaces/inkscape"
   xmlns:sodipodi="http://sodipodi.sourceforge.net/DTD/sodipodi-0.dtd"
   xmlns="http://www.w3.org/2000/svg"
   xmlns:svg="http://www.w3.org/2000/svg"><sodipodi:namedview
     id="namedview4"
     pagecolor="#ffffff"
     bordercolor="#999999"
     borderopacity="1"
     inkscape:showpageshadow="0"
     inkscape:pageopacity="0"
     inkscape:pagecheckerboard="0"
     inkscape:deskcolor="#d1d1d1"
     inkscape:zoom="1.5794998"
     inkscape:cx="169.35742"
     inkscape:cy="115.22635"
     inkscape:window-width="1916"
     inkscape:window-height="1031"
     inkscape:window-x="1920"
     inkscape:window-y="27"
     inkscape:window-maximized="1"
     inkscape:current-layer="hg-readme-banner-v2" /><defs
     id="defs2"><linearGradient
       id="a"
       x1="112.46"
       y1="309.13"
       x2="314.5"
       y2="309.13"
       gradientUnits="userSpaceOnUse"
       gradientTransform="translate(-33.985 -122.816)"><stop
         offset="0"
         stop-color="#1992f4"
         id="stop1" /><stop
         offset="1"
         stop-color="#2b8af6"
         id="stop2" /></linearGradient></defs><style
     id="style2">.st3{font-family:'OpenSans-Bold'}.st4{font-size:29.5168px}.st5{fill-rule:evenodd;clip-rule:evenodd;fill:none}.st7{font-family:'OpenSans'}.st8{font-size:12px}@media (prefers-color-scheme:dark){text{fill:#f0f6fc!important}}</style><text
     y="107.939"
     x="192.432"
     style="font-family:'Open Sans', sans-serif;-inkscape-font-specification:'OpenSans-Bold, Bold';font-variant-ligatures:normal;font-variant-caps:normal;font-variant-numeric:normal;font-feature-settings:normal;text-align:start"
     class="st3 st4"
     font-weight="700"
     font-size="29.517"
     font-family="'Open Sans',sans-serif"
     fill="#3f3e4b"
     id="text2">hausgold/minio</text><path
     class="st5"
     clip-rule="evenodd"
     fill="none"
     fill-rule="evenodd"
     d="M194.24 119.6h314.5v24h-314.5z"
     id="path2" /><text
     y="128.757"
     x="194.217"
     style="font-family:'Open Sans', sans-serif;-inkscape-font-specification:'Open Sans, sans-serif, Normal';font-variant-ligatures:normal;font-variant-caps:normal;font-variant-numeric:normal;font-feature-settings:normal;text-align:start"
     class="st7 st8"
     font-weight="400"
     font-size="12"
     font-family="'Open Sans',sans-serif"
     opacity=".75"
     fill="#3f3e4b"
     id="text3">mDNS enabled minio/minio</text><g
     style="fill:#ffffff;stroke-width:0.606166"
     id="g5"
     transform="matrix(1.6497125,0,0,1.6497125,70.888228,40.536156)"><path
       d="m 28.05,3.51 9.44,15.45 a 0.18,0.18 0 0 1 0,0.21 0.17,0.17 0 0 1 -0.25,0 L 25.01,6.42 Z"
       id="path2-3"
       style="fill:#c72c48;fill-opacity:1;stroke-width:0.606166" /><path
       d="m 7.2,45.1 a 42,42 0 0 1 8.32,-11.8 42.6,42.6 0 0 1 4.16,-3.65 v 9 z m -7.2,8.34 19.68,-10 v 22.9 l 4.43,5.76 v -31 L 26.8,39.71 A 13.35,13.35 0 0 0 30.47,18.59 L 20.34,8 a 2.25,2.25 0 0 1 0.11,-3.17 2.26,2.26 0 0 1 3.18,0.11 l 1.42,1.48 3,-2.92 c -3.59,-4.66 -8,-4.07 -10.53,-1.74 a 6.46,6.46 0 0 0 -0.28,9.12 l 10.24,10.67 a 9.14,9.14 0 0 1 -2,14.08 l -1.39,0.72 V 21.88 A 46.33,46.33 0 0 0 0,53.39 Z"
       id="path4-6"
       style="fill:#c72c48;fill-opacity:1;stroke-width:0.606166" /><path
       d="m 24.11,41.09 v 4.68 l -4.43,2.25 v -4.65 z"
       id="path6"
       style="fill:#c72c48;fill-opacity:1;stroke-width:0.606166" /></g></svg>
